<svg class="icon" viewBox="0 0 1024 1024" xmlns="http://www.w3.org/2000/svg" width="200" height="200"><defs><style/></defs><path d="M93.09 512C93.09 281.018 281.019 93.09 512 93.09S930.91 281.019 930.91 512 742.981 930.91 512 930.91 93.09 742.981 93.09 512m907.637 0c0-269.917-218.81-488.727-488.727-488.727S23.273 242.083 23.273 512 242.083 1000.727 512 1000.727 1000.727 781.917 1000.727 512m-348.392 35.468a34.932 34.932 0 0 0 1.373-49.385L467.526 301.777a34.91 34.91 0 0 0-50.665 48.059L578.98 520.774l-160.815 152.04a34.793 34.793 0 0 0-10.891 25.368 34.91 34.91 0 0 0 58.903 25.344l186.182-176.058z"/></svg>