<svg class="icon" viewBox="0 0 1024 1024" xmlns="http://www.w3.org/2000/svg" width="200" height="200"><defs><style/></defs><path d="M930.91 512c0 230.982-187.928 418.91-418.91 418.91S93.09 742.981 93.09 512 281.019 93.09 512 93.09 930.91 281.019 930.91 512m-907.637 0c0 269.917 218.81 488.727 488.727 488.727S1000.727 781.917 1000.727 512 781.917 23.273 512 23.273 23.273 242.083 23.273 512m348.392-35.468a34.932 34.932 0 0 0-1.373 49.385l186.182 196.306a34.91 34.91 0 0 0 50.665-48.059L445.02 503.226l160.815-152.04c7.237-6.866 10.891-16.105 10.891-25.368a34.91 34.91 0 0 0-58.903-25.344L371.642 476.532z"/></svg>